<svg xmlns="http://www.w3.org/2000/svg" xmlns:xlink="http://www.w3.org/1999/xlink" width="871.1" height="274.3" viewBox="0 0 871.1 274.3"><defs><style>      .a {        fill: none;      }      .b {        fill: #001f37;      }      .c {        clip-path: url(#a);      }      .d {        fill: url(#b);      }      .e {        clip-path: url(#c);      }      .f {        fill: url(#d);      }      .g {        clip-path: url(#e);      }      .h {        fill: url(#f);      }    </style><clipPath id="a" transform="translate(63.9 47.7)"><path class="a" d="M11.8,176.5C-.6,95,49.8,48.3,164.7,58.6L200.9,3.8A348.5,348.5,0,0,0,150.6,0C32.3,0-26.9,69.5,11.8,176.5"></path></clipPath><linearGradient id="b" x1="-188.73" y1="662.94" x2="-187.27" y2="662.94" gradientTransform="matrix(-113.79, 0, 0, 113.79, -21322.22, -75344.8)" gradientUnits="userSpaceOnUse"><stop offset="0" stop-color="#2abd93"></stop><stop offset="0.24" stop-color="#2abd93"></stop><stop offset="0.46" stop-color="#29bb92"></stop><stop offset="0.58" stop-color="#27b28d"></stop><stop offset="0.67" stop-color="#24a585"></stop><stop offset="0.76" stop-color="#1e9179"></stop><stop offset="0.83" stop-color="#18776b"></stop><stop offset="0.9" stop-color="#0f5858"></stop><stop offset="0.97" stop-color="#053443"></stop><stop offset="1" stop-color="#001f37"></stop></linearGradient><clipPath id="c" transform="translate(63.9 47.7)"><path class="a" d="M22.8,193.1C27.7,128,66,108.7,129.2,112.3l20.5-31.1A231.2,231.2,0,0,0,126.5,80C55.2,80,8.6,116.9,22.8,193.1"></path></clipPath><linearGradient id="d" x1="-188.73" y1="663.05" x2="-187.27" y2="663.05" gradientTransform="matrix(-113.58, 0, 0, 113.58, -21272.59, -75173.75)" xlink:href="#b"></linearGradient><clipPath id="e" transform="translate(63.9 47.7)"><path class="a" d="M32.1,209.2C43,172,64.4,154.7,100.2,158.3L115,135.8a121.3,121.3,0,0,0-14.5-.9c-40.9,0-68.5,23.5-68.4,74.3"></path></clipPath><linearGradient id="f" x1="-188.73" y1="663.14" x2="-187.27" y2="663.14" gradientTransform="matrix(-113.57, 0, 0, 113.57, -21263.6, -75143.04)" xlink:href="#b"></linearGradient></defs><g><g><polygon class="b" points="250.7 228.7 250.7 235.8 261.5 235.8 261.5 238.1 250.7 238.1 250.7 245 262.7 245 262.7 247.2 248.3 247.2 248.3 226.5 262.7 226.5 262.7 228.7 250.7 228.7"></polygon><polygon class="b" points="296.7 247.2 294.3 247.2 294.3 231.8 287.4 243.3 285.8 243.3 278.9 231.7 278.9 247.2 276.5 247.2 276.5 226.5 278.4 226.5 286.6 240.3 294.9 226.5 296.7 226.5 296.7 247.2"></polygon><g><path class="b" d="M262.8,185.7c0,4.3-3.3,7.1-8.3,7.1h-4.6v6.7h-2.4V178.8h7.3c4.8,0,8,2.7,8,6.9m-2.4,0c0-2.8-2.2-4.7-5.7-4.7h-4.8v9.6h4.8c3.5,0,5.7-2,5.7-4.9" transform="translate(63.9 47.7)"></path><path class="b" d="M296.5,189.1a10.8,10.8,0,1,1-10.8-10.6,10.7,10.7,0,0,1,10.8,10.6m-2.5,0a8.3,8.3,0,1,0-8.3,8.5,8.3,8.3,0,0,0,8.3-8.5" transform="translate(63.9 47.7)"></path><polygon class="b" points="401.2 226.5 394.1 247.4 391.8 247.4 386.2 230.8 380.5 247.4 378.2 247.4 371.1 226.5 373.7 226.5 379.3 243.7 385.1 226.5 387.2 226.5 392.9 243.6 398.6 226.5 401.2 226.5"></polygon><polygon class="b" points="416.3 228.7 416.3 235.8 427.1 235.8 427.1 238.1 416.3 238.1 416.3 245 428.3 245 428.3 247.2 413.9 247.2 413.9 226.5 428.3 226.5 428.3 228.7 416.3 228.7"></polygon><path class="b" d="M385.9,192.1h-5.3v7.4h-2.4V178.8H386c4.7,0,7.9,2.6,7.9,6.6s-2.1,5.6-5.3,6.4l6.3,7.7h-3Zm-5.3-2.2H386c3.2,0,5.6-1.7,5.6-4.5s-2.4-4.4-5.6-4.4h-5.4Z" transform="translate(63.9 47.7)"></path><rect class="b" x="471.5" y="226.5" width="2.4" height="20.67"></rect><polygon class="b" points="506.2 226.5 506.2 247.2 504.2 247.2 491 230.9 491 247.2 488.6 247.2 488.6 226.5 490.6 226.5 503.8 243 503.8 226.5 506.2 226.5"></polygon><path class="b" d="M475.7,188.6v10.9h-2l-.2-4.2a8.6,8.6,0,0,1-7.9,4.6,10.6,10.6,0,0,1-10.7-10.6,10.7,10.7,0,0,1,10.9-10.9c4.5,0,8.7,2.6,9.8,7.3H473a7.2,7.2,0,0,0-7.2-5,8.3,8.3,0,0,0-8.4,8.6,8.1,8.1,0,0,0,8.2,8.3c4.3,0,6.9-2.9,7.5-6.8h-7.7v-2.2Z" transform="translate(63.9 47.7)"></path><polygon class="b" points="587.6 230.4 580.5 230.4 580.5 247.2 576.4 247.2 576.4 230.4 569.4 230.4 569.4 226.5 587.6 226.5 587.6 230.4"></polygon><path class="b" d="M544.3,192.9h-4.2v6.6h-4.2V178.8h8.8c4.6,0,8.1,2.8,8.1,7.1a6.6,6.6,0,0,1-4.1,6.2l5.4,7.4h-5Zm-4.2-3.8h4.4c2.3,0,4.2-1.3,4.2-3.2s-1.9-3.3-4.2-3.3h-4.4Z" transform="translate(63.9 47.7)"></path><path class="b" d="M580.1,195.4h-9.5l-1.7,4.1h-4.4l9-20.7h3.8l8.9,20.7h-4.4Zm-1.5-3.7-3.2-7.9-3.3,7.9Z" transform="translate(63.9 47.7)"></path><polygon class="b" points="680.6 226.5 680.6 247.2 677.4 247.2 666.2 234.2 666.2 247.2 662.1 247.2 662.1 226.5 665.1 226.5 676.4 239.9 676.4 226.5 680.6 226.5"></polygon><path class="b" d="M646.6,185.1h-4.1c-.3-1.9-1.5-3.1-4.1-3.1s-3.8.9-3.8,2.6,1.1,2.1,3.1,2.5l2.4.5c4.1.8,6.4,2.4,6.4,5.8s-3.3,6.4-8.1,6.4-8.7-2.7-9-7.1h4.1c.4,2.1,2.3,3.5,5.1,3.5s3.6-.8,3.6-2.3-.5-1.9-2.7-2.3l-3.4-.6c-4.1-.8-5.9-2.9-5.9-6s3.2-6.5,7.9-6.5,8,1.3,8.5,6.6" transform="translate(63.9 47.7)"></path><rect class="b" x="723.4" y="226.5" width="4.1" height="20.67"></rect><polygon class="b" points="757.6 230.4 750.6 230.4 750.6 247.2 746.5 247.2 746.5 230.4 739.5 230.4 739.5 226.5 757.6 226.5 757.6 230.4"></polygon><rect class="b" x="769.4" y="226.5" width="4.1" height="20.67"></rect><path class="b" d="M744,189.1a10.8,10.8,0,1,1-10.8-10.6A10.7,10.7,0,0,1,744,189.1m-4.2,0a6.6,6.6,0,1,0-6.6,6.9,6.6,6.6,0,0,0,6.6-6.9" transform="translate(63.9 47.7)"></path><polygon class="b" points="839.3 226.5 839.3 247.2 836.1 247.2 824.9 234.2 824.9 247.2 820.7 247.2 820.7 226.5 823.8 226.5 835.1 239.9 835.1 226.5 839.3 226.5"></polygon><path class="b" d="M805.3,185.1h-4.1c-.3-1.9-1.5-3.1-4.1-3.1s-3.8.9-3.8,2.6,1.1,2.1,3.1,2.5l2.4.5c4,.8,6.4,2.4,6.4,5.8s-3.3,6.4-8.1,6.4-8.7-2.7-9-7.1h4.1c.3,2.1,2.3,3.5,5.1,3.5s3.6-.8,3.6-2.3-.5-1.9-2.7-2.3l-3.4-.6c-4.1-.8-5.9-2.9-5.9-6s3.2-6.5,7.9-6.5,8,1.3,8.5,6.6" transform="translate(63.9 47.7)"></path></g></g><path class="b" d="M762.5,104.7a5,5,0,0,1-1.2-3.4c0-4.5,3.8-7.8,13.7-7.8a26.2,26.2,0,0,1,12.5,3.3,37.9,37.9,0,0,1,4.5,3.4L801.3,86a36.4,36.4,0,0,0-3.9-2.3,49.2,49.2,0,0,0-23-5.4c-21,0-33.5,10.7-33.5,23a21.4,21.4,0,0,0,.5,4.5c4.7,22.3,45.4,17.7,45.4,30.3,0,5.1-4.6,9-15.1,9a34.5,34.5,0,0,1-6.6-.6,36.3,36.3,0,0,1-9.4-3.5,27.6,27.6,0,0,1-5.6-4.3L737,147.9a32.8,32.8,0,0,0,8.8,6.2,53.7,53.7,0,0,0,6.7,2.9,58.6,58.6,0,0,0,19.9,3.3c21.6,0,34.7-11.3,34.7-24.2,0-24.7-37.3-22.3-44.6-31.4" transform="translate(63.9 47.7)"></path><polygon class="b" points="770.6 127.7 770.6 206.3 756.3 206.3 707.1 154.1 707.1 206.3 690.3 206.3 690.3 127.7 705.4 127.7 753.8 179.1 753.8 127.7 770.6 127.7"></polygon><path class="b" d="M580.7,158.6h18.4L564.5,80H544l-34.7,78.6h18.4l7.8-17.8h37.4Zm-38.4-33.1,11.2-25.4h1.4l11.2,25.4Z" transform="translate(63.9 47.7)"></path><path class="b" d="M488,80v46c0,10.1-3.5,18.7-9.5,24.7s-14.6,9.6-24.7,9.6H443.7c-20.2,0-34.2-14.1-34.2-34.3V80h16.8v46c0,11.2,7.2,18.5,17.4,18.5h10.1c10.2,0,17.4-7.3,17.4-18.5V80Z" transform="translate(63.9 47.7)"></path><path class="b" d="M381.9,120.3c0-22.8-17.9-41.2-44.4-41.2h-5.8c-26.5,0-44.4,18.4-44.4,41.2s17.9,41.1,44.4,41.1h5.1c8.1.1,16.8.9,34.5,3.6l8.9-13.6h0l-10.8-1.8a39.7,39.7,0,0,0,12.5-29.2m-77.7,0c0-14.3,11.3-24.3,27.5-24.3h5.8c16.2,0,27.5,10,27.5,24.3s-11.3,24.3-27.5,24.3h-5.8c-16.2,0-27.5-10-27.5-24.3" transform="translate(63.9 47.7)"></path><polygon class="b" points="322.9 143.4 322.9 127.7 248 127.7 248 206.3 248 206.3 322.9 206.3 322.9 190.6 264.8 190.6 264.8 174 313.9 174 313.9 158.3 264.8 158.3 264.8 143.4 322.9 143.4"></polygon><g class="c"><rect class="d" x="-43.2" y="-22.4" width="260.4" height="221.28" transform="translate(47 68.4) rotate(-12.4)"></rect></g><g class="e"><rect class="f" x="-1.8" y="66.2" width="162.1" height="140.73" transform="translate(36.5 67.9) rotate(-12.4)"></rect></g><g class="g"><rect class="h" x="25" y="126.8" width="97" height="90.44" transform="translate(28.7 67.5) rotate(-12.4)"></rect></g></g></svg>